<svg xmlns="http://www.w3.org/2000/svg" width="40" height="40" viewBox="0 0 64 64"><defs><filter id="s" x="-20%" y="-20%" width="140%" height="140%"><feMorphology in="SourceAlpha" operator="dilate" radius="1.6" result="gordo"/><feFlood flood-color="#f4ead2" flood-opacity="0.9"/><feComposite in2="gordo" operator="in" result="borda"/><feGaussianBlur in="gordo" stdDeviation="1.3"/><feOffset dx="1.5" dy="2" result="borrado"/><feFlood flood-color="#000" flood-opacity="0.45"/><feComposite in2="borrado" operator="in" result="sombra"/><feMerge><feMergeNode in="sombra"/><feMergeNode in="borda"/><feMergeNode in="SourceGraphic"/></feMerge></filter><linearGradient id="g" gradientUnits="userSpaceOnUse" x1="8" y1="6" x2="50" y2="58"><stop offset="0" stop-color="#b67a48"/><stop offset="0.45" stop-color="#8a5530"/><stop offset="1" stop-color="#4f2c14"/></linearGradient><linearGradient id="d" gradientUnits="userSpaceOnUse" x1="14" y1="0" x2="24" y2="0"><stop offset="0" stop-color="#8a5530"/><stop offset="0.3" stop-color="#b67a48"/><stop offset="0.65" stop-color="#8a5530"/><stop offset="1" stop-color="#4f2c14"/></linearGradient></defs><g filter="url(#s)"><g transform="translate(12 11) rotate(-25) scale(0.880) translate(-19 -3.6)"><path d="M13 50 H47 L51 62 H9 Z" fill="#5b3518" stroke="#1e1208" stroke-width="2.4" stroke-linejoin="round"/><path d="M11.5 56 H48.5" fill="none" stroke="#d6ad48" stroke-width="2.4" stroke-linecap="round" stroke-linejoin="round" opacity="1.0"/><path d="M12 59.5 H48" fill="none" stroke="#f3d982" stroke-width="0.8" stroke-linecap="round" stroke-linejoin="round" opacity="0.8" stroke-dasharray="1.6 1.4"/><path d="M12 30 Q12 28 14 28 H46 Q48 28 48 31 V44 Q48 54 38 54 H22 Q12 54 12 44 Z" fill="url(#g)" stroke="#1e1208" stroke-width="2.4" stroke-linejoin="round"/><path d="M15 44 Q30 48 45 44" fill="none" stroke="#d6ad48" stroke-width="0.9" stroke-linecap="round" stroke-linejoin="round" opacity="0.7" stroke-dasharray="1.8 1.5"/><path d="M24 37 V22 Q24 17.5 28.5 17.5 Q33 17.5 33 22 V37 Z" fill="url(#g)" stroke="#1e1208" stroke-width="2.4" stroke-linejoin="round"/><path d="M33 38 V24 Q33 20 37 20 Q41 20 41 24 V38 Z" fill="url(#g)" stroke="#1e1208" stroke-width="2.4" stroke-linejoin="round"/><path d="M41 39 V27 Q41 23.5 44.5 23.5 Q48 23.5 48 27 V39 Z" fill="url(#g)" stroke="#1e1208" stroke-width="2.4" stroke-linejoin="round"/><path d="M25.5 27 Q28.5 25.5 31.5 27 M34.5 29 Q37 27.6 39.5 29 M42.5 31.5 Q44.5 30.2 46.5 31.5" fill="none" stroke="#3a200e" stroke-width="1.1" stroke-linecap="round" stroke-linejoin="round" opacity="0.6"/><path d="M14 37 L14.6 10 Q14.8 3.6 19 3.6 Q23.2 3.6 23.4 10 L24 37 Z" fill="url(#d)" stroke="#1e1208" stroke-width="2.4" stroke-linejoin="round"/><path d="M16.6 10 L16.2 33" fill="none" stroke="#d9a274" stroke-width="1.6" stroke-linecap="round" stroke-linejoin="round" opacity="0.55"/><path d="M21.6 9 L22.2 34" fill="none" stroke="#d6ad48" stroke-width="0.9" stroke-linecap="round" stroke-linejoin="round" opacity="0.85" stroke-dasharray="1.8 1.5"/><path d="M13 41 Q6 39 7 31 Q8 26 13 27 Q19 29 23 33 Q26 37 22 40 Q18 42 13 41 Z" fill="url(#g)" stroke="#1e1208" stroke-width="2.4" stroke-linejoin="round"/><path d="M10 33 Q12 29 15.5 30" fill="none" stroke="#d9a274" stroke-width="1.5" stroke-linecap="round" stroke-linejoin="round" opacity="0.6"/></g></g><g stroke="#d6ad48" stroke-width="2.6" stroke-linecap="round"><path d="M8 7 L3 2"/><path d="M14 5 L15 1"/><path d="M6 13 L2 14"/></g><circle cx="12" cy="11" r="3.2" fill="#f3d982" opacity="0.6"/></svg>
