<svg xmlns="http://www.w3.org/2000/svg" width="32" height="32" viewBox="0 0 64 64"><defs><filter id="s" x="-20%" y="-20%" width="140%" height="140%"><feMorphology in="SourceAlpha" operator="dilate" radius="1.6" result="gordo"/><feFlood flood-color="#f4ead2" flood-opacity="0.9"/><feComposite in2="gordo" operator="in" result="borda"/><feGaussianBlur in="gordo" stdDeviation="1.3"/><feOffset dx="1.5" dy="2" result="borrado"/><feFlood flood-color="#000" flood-opacity="0.45"/><feComposite in2="borrado" operator="in" result="sombra"/><feMerge><feMergeNode in="sombra"/><feMergeNode in="borda"/><feMergeNode in="SourceGraphic"/></feMerge></filter></defs><g filter="url(#s)"><g transform="translate(12 11) rotate(-25) scale(0.88) translate(-19 -4)"><path d="M14 52 H46 L49 62 H11 Z" fill="#5b3518" stroke="#1e1208" stroke-width="2.4" stroke-linejoin="round"/><path d="M13.5 56 H46.5" fill="none" stroke="#d6ad48" stroke-width="2.2" stroke-linecap="round" opacity="1.0"/><path d="M12 30 H48 V44 Q48 54 38 54 H22 Q12 54 12 44 Z" fill="#7b4a26" stroke="#1e1208" stroke-width="2.4" stroke-linejoin="round"/><path d="M24 36 V22 a4.5 4.5 0 0 1 9 0 V36 Z" fill="#7b4a26" stroke="#1e1208" stroke-width="2.4" stroke-linejoin="round"/><path d="M33 37 V24 a4 4 0 0 1 8 0 V37 Z" fill="#7b4a26" stroke="#1e1208" stroke-width="2.4" stroke-linejoin="round"/><path d="M41 38 V27 a3.5 3.5 0 0 1 7 0 V38 Z" fill="#7b4a26" stroke="#1e1208" stroke-width="2.4" stroke-linejoin="round"/><path d="M14 36 V9 a5 5 0 0 1 10 0 V36 Z" fill="#7b4a26" stroke="#1e1208" stroke-width="2.4" stroke-linejoin="round"/><path d="M17 12 V31" fill="none" stroke="#a46a3c" stroke-width="2" stroke-linecap="round" opacity="0.8"/><path d="M21.5 14 V33" fill="none" stroke="#d6ad48" stroke-width="1" stroke-linecap="round" opacity="0.55"/><path d="M13 41 Q6 39 7 31 Q8 26 13 27 Q19 29 23 33 Q26 37 22 40 Q18 42 13 41 Z" fill="#7b4a26" stroke="#1e1208" stroke-width="2.4" stroke-linejoin="round"/><path d="M10 33 Q12 29 15 30" fill="none" stroke="#a46a3c" stroke-width="1.6" stroke-linecap="round" opacity="0.7"/></g></g></svg>
