<svg xmlns="http://www.w3.org/2000/svg" width="40" height="40" viewBox="0 0 64 64"><defs><filter id="s" x="-20%" y="-20%" width="140%" height="140%"><feMorphology in="SourceAlpha" operator="dilate" radius="1.6" result="gordo"/><feFlood flood-color="#f4ead2" flood-opacity="0.9"/><feComposite in2="gordo" operator="in" result="borda"/><feGaussianBlur in="gordo" stdDeviation="1.3"/><feOffset dx="1.5" dy="2" result="borrado"/><feFlood flood-color="#000" flood-opacity="0.45"/><feComposite in2="borrado" operator="in" result="sombra"/><feMerge><feMergeNode in="sombra"/><feMergeNode in="borda"/><feMergeNode in="SourceGraphic"/></feMerge></filter><linearGradient id="g" gradientUnits="userSpaceOnUse" x1="8" y1="6" x2="50" y2="58"><stop offset="0" stop-color="#c2df8a"/><stop offset="0.45" stop-color="#8db35a"/><stop offset="1" stop-color="#4f6f2a"/></linearGradient><linearGradient id="d" gradientUnits="userSpaceOnUse" x1="14" y1="0" x2="24" y2="0"><stop offset="0" stop-color="#8db35a"/><stop offset="0.3" stop-color="#c2df8a"/><stop offset="0.65" stop-color="#8db35a"/><stop offset="1" stop-color="#4f6f2a"/></linearGradient></defs><g filter="url(#s)"><g transform="translate(12 11) rotate(-12) scale(0.776) translate(-19 3.5)"><path d="M13 50 H47 L49 58 L46 61 L43 58.5 L39 62 L35 58.5 L31 62 L27 58.5 L23 62 L19 58.5 L15 61 L11 58 Z" fill="#6b5233" stroke="#1e1208" stroke-width="2.4" stroke-linejoin="round"/><path d="M12.5 54 Q30 56.5 47.5 54" fill="none" stroke="#3f2e1a" stroke-width="1.6" stroke-linecap="round" stroke-linejoin="round" opacity="0.9"/><path d="M12 30 Q12 28 14 28 H46 Q48 28 48 31 V44 Q48 54 38 54 H22 Q12 54 12 44 Z" fill="url(#g)" stroke="#1e1208" stroke-width="2.4" stroke-linejoin="round"/><circle cx="33" cy="45" r="1.5" fill="#6f8f3f" stroke="#4f6f2a" stroke-width="0.6"/><circle cx="21" cy="49" r="1.1" fill="#6f8f3f" stroke="#4f6f2a" stroke-width="0.6"/><circle cx="18.8" cy="22" r="0.9" fill="#6f8f3f" stroke="#4f6f2a" stroke-width="0.6"/><circle cx="40" cy="42" r="0.8" fill="#6f8f3f" stroke="#4f6f2a" stroke-width="0.6"/><path d="M24 37 V22 Q24 17.5 28.5 17.5 Q33 17.5 33 22 V37 Z" fill="url(#g)" stroke="#1e1208" stroke-width="2.4" stroke-linejoin="round"/><path d="M33 38 V24 Q33 20 37 20 Q41 20 41 24 V38 Z" fill="url(#g)" stroke="#1e1208" stroke-width="2.4" stroke-linejoin="round"/><path d="M41 39 V27 Q41 23.5 44.5 23.5 Q48 23.5 48 27 V39 Z" fill="url(#g)" stroke="#1e1208" stroke-width="2.4" stroke-linejoin="round"/><path d="M26.3 18.8 Q28.5 13.100000000000001 30.7 18.8 Z" fill="#2c2416" stroke="#1e1208" stroke-width="0.8"/><path d="M34.8 21.3 Q37 15.600000000000001 39.2 21.3 Z" fill="#2c2416" stroke="#1e1208" stroke-width="0.8"/><path d="M42.3 24.8 Q44.5 19.1 46.7 24.8 Z" fill="#2c2416" stroke="#1e1208" stroke-width="0.8"/><path d="M25.5 27 Q28.5 25.5 31.5 27 M34.5 29 Q37 27.6 39.5 29 M42.5 31.5 Q44.5 30.2 46.5 31.5" fill="none" stroke="#4f6f2a" stroke-width="1.1" stroke-linecap="round" stroke-linejoin="round" opacity="0.9"/><path d="M15.4 37 L15.8 10 Q16 3.6 19 3.6 Q22 3.6 22.2 10 L22.6 37 Z" fill="url(#d)" stroke="#1e1208" stroke-width="2.4" stroke-linejoin="round"/><path d="M16.6 7.5 Q19 -4 21.4 7.5 Q19 9 16.6 7.5 Z" fill="#2c2416" stroke="#1e1208" stroke-width="1"/><path d="M17 17 Q19 18.3 21 17 M16.8 27 Q19 28.3 21.2 27" fill="none" stroke="#4f6f2a" stroke-width="1.1" stroke-linecap="round" stroke-linejoin="round" opacity="0.9"/><path d="M13 41 Q6 39 7 31 Q8 26 13 27 Q19 29 23 33 Q26 37 22 40 Q18 42 13 41 Z" fill="url(#g)" stroke="#1e1208" stroke-width="2.4" stroke-linejoin="round"/></g></g><g fill="none" stroke="#f3d982" stroke-width="2" stroke-linecap="round" opacity="0.9"><path d="M5 12 Q5 4 13 4"/></g></svg>
