<svg xmlns="http://www.w3.org/2000/svg" width="40" height="40" viewBox="0 0 64 64"><defs><filter id="s" x="-20%" y="-20%" width="140%" height="140%"><feMorphology in="SourceAlpha" operator="dilate" radius="1.6" result="gordo"/><feFlood flood-color="#f4ead2" flood-opacity="0.9"/><feComposite in2="gordo" operator="in" result="borda"/><feGaussianBlur in="gordo" stdDeviation="1.3"/><feOffset dx="1.5" dy="2" result="borrado"/><feFlood flood-color="#000" flood-opacity="0.45"/><feComposite in2="borrado" operator="in" result="sombra"/><feMerge><feMergeNode in="sombra"/><feMergeNode in="borda"/><feMergeNode in="SourceGraphic"/></feMerge></filter><linearGradient id="g" gradientUnits="userSpaceOnUse" x1="8" y1="6" x2="50" y2="58"><stop offset="0" stop-color="#eef2f6"/><stop offset="0.45" stop-color="#a3acb6"/><stop offset="1" stop-color="#555e68"/></linearGradient><linearGradient id="d" gradientUnits="userSpaceOnUse" x1="14" y1="0" x2="24" y2="0"><stop offset="0" stop-color="#a3acb6"/><stop offset="0.3" stop-color="#eef2f6"/><stop offset="0.65" stop-color="#a3acb6"/><stop offset="1" stop-color="#555e68"/></linearGradient></defs><g filter="url(#s)"><g transform="translate(12 11) rotate(-12) scale(0.820) translate(-19 -3.6)"><path d="M12 49 H48 L52 62 H8 Z" fill="#6c7580" stroke="#1e1208" stroke-width="2.4" stroke-linejoin="round"/><path d="M10.5 55 H49.5" fill="none" stroke="#d6ad48" stroke-width="2.4" stroke-linecap="round" stroke-linejoin="round" opacity="1.0"/><circle cx="16" cy="58.7" r="1.3" fill="#d6ad48" stroke="#1e1208" stroke-width="0.6"/><circle cx="24" cy="58.7" r="1.3" fill="#d6ad48" stroke="#1e1208" stroke-width="0.6"/><circle cx="32" cy="58.7" r="1.3" fill="#d6ad48" stroke="#1e1208" stroke-width="0.6"/><circle cx="40" cy="58.7" r="1.3" fill="#d6ad48" stroke="#1e1208" stroke-width="0.6"/><path d="M12 30 Q12 28 14 28 H46 Q48 28 48 31 V44 Q48 54 38 54 H22 Q12 54 12 44 Z" fill="url(#g)" stroke="#1e1208" stroke-width="2.4" stroke-linejoin="round"/><path d="M13 40 H47" fill="none" stroke="#4a525c" stroke-width="1.4" stroke-linecap="round" stroke-linejoin="round" opacity="0.9"/><circle cx="20" cy="47" r="1.2" fill="#d6ad48" stroke="#1e1208" stroke-width="0.5"/><circle cx="30" cy="47" r="1.2" fill="#d6ad48" stroke="#1e1208" stroke-width="0.5"/><circle cx="40" cy="47" r="1.2" fill="#d6ad48" stroke="#1e1208" stroke-width="0.5"/><path d="M24 37 V22 Q24 17.5 28.5 17.5 Q33 17.5 33 22 V37 Z" fill="url(#g)" stroke="#1e1208" stroke-width="2.4" stroke-linejoin="round"/><path d="M33 38 V24 Q33 20 37 20 Q41 20 41 24 V38 Z" fill="url(#g)" stroke="#1e1208" stroke-width="2.4" stroke-linejoin="round"/><path d="M41 39 V27 Q41 23.5 44.5 23.5 Q48 23.5 48 27 V39 Z" fill="url(#g)" stroke="#1e1208" stroke-width="2.4" stroke-linejoin="round"/><path d="M24.5 30 H32.5 M33.5 31 H40.5 M41.5 32.5 H47.5" fill="none" stroke="#4a525c" stroke-width="1.3" stroke-linecap="round" stroke-linejoin="round" opacity="0.9"/><path d="M14 37 L14.6 10 Q14.8 3.6 19 3.6 Q23.2 3.6 23.4 10 L24 37 Z" fill="url(#d)" stroke="#1e1208" stroke-width="2.4" stroke-linejoin="round"/><path d="M14.2 26 L24 26 L24 37 L14 37 Z" fill="url(#d)" stroke="#1e1208" stroke-width="2.4" stroke-linejoin="round"/><path d="M14.5 15.5 L23.5 15.5 L23.8 27 L14.2 27 Z" fill="url(#d)" stroke="#1e1208" stroke-width="2.4" stroke-linejoin="round"/><path d="M16.6 9 V13 M16.5 18 V24 M16.4 29 V35" fill="none" stroke="#ffffff" stroke-width="1.4" stroke-linecap="round" stroke-linejoin="round" opacity="0.8"/><path d="M13 41 Q6 39 7 31 Q8 26 13 27 Q19 29 23 33 Q26 37 22 40 Q18 42 13 41 Z" fill="url(#g)" stroke="#1e1208" stroke-width="2.4" stroke-linejoin="round"/><path d="M10 33 Q12 29 15.5 30" fill="none" stroke="#ffffff" stroke-width="1.4" stroke-linecap="round" stroke-linejoin="round" opacity="0.8"/></g></g><g fill="none" stroke="#f3d982" stroke-width="2" stroke-linecap="round" opacity="0.9"><path d="M5 12 Q5 4 13 4"/></g></svg>
