<svg xmlns="http://www.w3.org/2000/svg" width="40" height="40" viewBox="0 0 64 64"><defs><filter id="s" x="-20%" y="-20%" width="140%" height="140%"><feMorphology in="SourceAlpha" operator="dilate" radius="1.6" result="gordo"/><feFlood flood-color="#f4ead2" flood-opacity="0.9"/><feComposite in2="gordo" operator="in" result="borda"/><feGaussianBlur in="gordo" stdDeviation="1.3"/><feOffset dx="1.5" dy="2" result="borrado"/><feFlood flood-color="#000" flood-opacity="0.45"/><feComposite in2="borrado" operator="in" result="sombra"/><feMerge><feMergeNode in="sombra"/><feMergeNode in="borda"/><feMergeNode in="SourceGraphic"/></feMerge></filter><linearGradient id="g" gradientUnits="userSpaceOnUse" x1="8" y1="6" x2="50" y2="58"><stop offset="0" stop-color="#eef2f6"/><stop offset="0.45" stop-color="#a3acb6"/><stop offset="1" stop-color="#555e68"/></linearGradient><linearGradient id="d" gradientUnits="userSpaceOnUse" x1="14" y1="0" x2="24" y2="0"><stop offset="0" stop-color="#a3acb6"/><stop offset="0.3" stop-color="#eef2f6"/><stop offset="0.65" stop-color="#a3acb6"/><stop offset="1" stop-color="#555e68"/></linearGradient></defs><g filter="url(#s)"><g transform="translate(14 24) rotate(-25) scale(0.900) translate(-5.4 -22.4)"><path d="M12 49 H48 L52 62 H8 Z" fill="#6c7580" stroke="#1e1208" stroke-width="2.4" stroke-linejoin="round"/><path d="M10.5 55 H49.5" fill="none" stroke="#d6ad48" stroke-width="2.4" stroke-linecap="round" stroke-linejoin="round" opacity="1.0"/><circle cx="16" cy="58.7" r="1.3" fill="#d6ad48" stroke="#1e1208" stroke-width="0.6"/><circle cx="24" cy="58.7" r="1.3" fill="#d6ad48" stroke="#1e1208" stroke-width="0.6"/><circle cx="32" cy="58.7" r="1.3" fill="#d6ad48" stroke="#1e1208" stroke-width="0.6"/><circle cx="40" cy="58.7" r="1.3" fill="#d6ad48" stroke="#1e1208" stroke-width="0.6"/><path d="M12 30 Q12 28 14 28 H46 Q48 28 48 31 V44 Q48 54 38 54 H22 Q12 54 12 44 Z" fill="url(#g)" stroke="#1e1208" stroke-width="2.4" stroke-linejoin="round"/><path d="M24 37 V22 Q24 17.5 28.5 17.5 Q33 17.5 33 22 V37 Z" fill="url(#g)" stroke="#1e1208" stroke-width="2.4" stroke-linejoin="round"/><path d="M33 38 V24 Q33 20 37 20 Q41 20 41 24 V38 Z" fill="url(#g)" stroke="#1e1208" stroke-width="2.4" stroke-linejoin="round"/><path d="M41 39 V27 Q41 23.5 44.5 23.5 Q48 23.5 48 27 V39 Z" fill="url(#g)" stroke="#1e1208" stroke-width="2.4" stroke-linejoin="round"/><path d="M14 37 L14.3 22 Q14.5 17 19 17 Q23.5 17 23.7 22 L24 37 Z" fill="url(#d)" stroke="#1e1208" stroke-width="2.4" stroke-linejoin="round"/><path d="M22 21 Q22 15.4 16.5 15.4 L8.6 15.8 Q4.4 16.1 4.5 19.9 Q4.7 23.6 8.7 23.6 L17.5 24.2 Q22 24.2 22 21 Z" fill="url(#d)" stroke="#1e1208" stroke-width="2.4" stroke-linejoin="round"/><path d="M13 41 Q7 40 6 34 Q5 29 5.6 27 Q6.4 24.4 9 25 Q11.4 25.6 11.8 29 Q12.4 33 17 35.5 Q15.5 40 13 41 Z" fill="url(#g)" stroke="#1e1208" stroke-width="2.4" stroke-linejoin="round"/></g></g></svg>
